<svg width="197" height="51" viewBox="0 0 197 51" fill="none" xmlns="http://www.w3.org/2000/svg">
<g clip-path="url(#clip0_37_44)">
<path d="M66.2395 40.8822C63.1668 40.8822 60.7443 40.0211 58.972 38.2989C57.1997 36.5768 56.3136 34.3561 56.3136 31.6369C56.3136 28.9921 57.1805 26.8354 58.9144 25.1666C60.6483 23.4978 62.9271 22.6635 65.7509 22.6635H75.5151V19.9442C75.5151 15.3402 73.201 13.0382 68.5728 13.0382C66.4376 13.0382 64.7291 13.4914 63.4473 14.3978C62.5738 14.9829 61.92 15.8435 61.5895 16.8432C61.4705 17.1954 61.2434 17.5009 60.9408 17.716C60.6382 17.9311 60.2755 18.0448 59.9046 18.0408C59.6227 18.0405 59.345 17.9719 59.0953 17.8407C58.8456 17.7096 58.6312 17.5198 58.4704 17.2877C58.3096 17.0555 58.2073 16.7878 58.172 16.5074C58.1367 16.227 58.1696 15.9422 58.2679 15.6773C58.8003 14.2851 59.7109 13.0702 60.8966 12.1703C62.8299 10.6468 65.3886 9.88501 68.5728 9.88501C71.9712 9.88501 74.572 10.7542 76.3753 12.4925C78.1785 14.2308 79.0826 16.6961 79.0876 19.8884V38.5709C79.0876 38.803 79.042 39.0328 78.9534 39.2472C78.8648 39.4617 78.7349 39.6565 78.5712 39.8207C78.4075 39.9848 78.2131 40.115 77.9992 40.2038C77.7853 40.2926 77.5561 40.3383 77.3246 40.3383C76.857 40.3383 76.4086 40.1521 76.0779 39.8207C75.7473 39.4892 75.5616 39.0396 75.5616 38.5709V35.1718C75.055 36.9101 73.9794 38.2971 72.3347 39.3326C70.69 40.3681 68.6582 40.8847 66.2395 40.8822ZM67.2166 37.783C69.7469 37.783 71.7625 37.1305 73.2636 35.8256C74.7646 34.5206 75.5151 32.7624 75.5151 30.551V25.6564H65.9144C64.1421 25.6564 62.7048 26.2003 61.6025 27.288C60.5003 28.3757 59.9485 29.752 59.9473 31.4171C59.9473 33.3392 60.5981 34.8794 61.8998 36.0379C63.2014 37.1963 64.9737 37.7781 67.2166 37.783Z" fill="white"/>
<path d="M88.1533 38.5448V12.2336C88.1533 11.7577 88.3418 11.3013 88.6772 10.9647C89.0127 10.628 89.4677 10.4387 89.9423 10.4382C90.4172 10.4387 90.8724 10.628 91.2081 10.9646C91.5439 11.3012 91.7327 11.7576 91.7332 12.2336V15.4873C92.1458 13.8378 93.1252 12.3869 94.4994 11.3899C95.8729 10.3966 97.6067 9.8999 99.701 9.8999C102.921 9.8999 105.353 10.8311 106.996 12.6936C108.64 14.5561 109.463 17.1754 109.465 20.5514V21.4212C109.465 21.8972 109.276 22.3536 108.94 22.6902C108.604 23.0268 108.149 23.2161 107.674 23.2166C107.2 23.2161 106.744 23.0268 106.409 22.6902C106.073 22.3536 105.884 21.8972 105.884 21.4212V20.5514C105.889 15.5028 103.538 12.9786 98.8316 12.9786C96.5169 12.9786 94.7539 13.6671 93.5426 15.0441C92.3314 16.421 91.7282 18.4021 91.7332 20.9872V38.5522C91.7327 39.0281 91.5438 39.4843 91.208 39.8206C90.8722 40.1569 90.417 40.3458 89.9423 40.3458C89.7068 40.3458 89.4735 40.2991 89.256 40.2085C89.0385 40.1179 88.8409 39.9852 88.6747 39.8178C88.5085 39.6505 88.3768 39.4519 88.2874 39.2334C88.1979 39.015 88.1524 38.7809 88.1533 38.5448Z" fill="white"/>
<path d="M121.947 47.7883L125.477 38.3269L115.354 12.9451C115.243 12.6666 115.202 12.3651 115.234 12.0669C115.266 11.7687 115.37 11.483 115.538 11.2347C115.706 10.9863 115.932 10.783 116.196 10.6426C116.46 10.5021 116.755 10.4287 117.054 10.4289C117.424 10.4288 117.785 10.5413 118.09 10.7515C118.395 10.9617 118.629 11.2596 118.761 11.606L125.525 29.2455C125.886 30.1531 126.238 31.0682 126.582 31.9907C126.927 32.9133 127.171 33.6477 127.314 34.194C127.496 33.6502 127.74 32.9052 128.046 31.9591C128.352 31.0129 128.669 30.0885 128.996 29.1859L135.347 11.6115C135.473 11.2635 135.702 10.9628 136.004 10.7501C136.307 10.5375 136.667 10.4234 137.036 10.4233C137.326 10.4234 137.612 10.494 137.869 10.6291C138.127 10.7642 138.347 10.9597 138.512 11.199C138.678 11.4383 138.783 11.7142 138.818 12.003C138.854 12.2919 138.819 12.5851 138.717 12.8575L125.187 48.9896C125.062 49.3184 124.84 49.6013 124.551 49.8009C124.261 50.0005 123.919 50.1072 123.567 50.107C123.291 50.1057 123.018 50.0379 122.773 49.9093C122.528 49.7807 122.318 49.595 122.159 49.3678C122 49.1407 121.898 48.8787 121.861 48.6039C121.825 48.329 121.854 48.0493 121.947 47.7883Z" fill="white"/>
<path d="M156.28 40.8282C152.917 40.8282 150.24 39.8219 148.251 37.8091C146.262 35.7964 145.27 33.0325 145.275 29.5174V21.2517C145.275 17.7354 146.266 14.9708 148.247 12.9581C150.229 10.9454 152.905 9.93968 156.277 9.94092C159.639 9.94092 162.315 10.9467 164.304 12.9581C166.293 14.9696 167.287 17.7341 167.287 21.2517V29.5174C167.287 33.0337 166.293 35.7977 164.304 37.8091C162.315 39.8206 159.64 40.827 156.28 40.8282ZM156.28 37.6732C158.633 37.6732 160.46 36.9847 161.759 35.6077C163.058 34.2307 163.709 32.2751 163.711 29.7409V21.0338C163.711 18.4971 163.051 16.5397 161.731 15.1614C160.411 13.7832 158.594 13.0941 156.28 13.0941C153.966 13.0941 152.148 13.7832 150.828 15.1614C149.508 16.5397 148.847 18.4971 148.847 21.0338V29.7409C148.847 32.2776 149.499 34.235 150.802 35.6133C152.105 36.9915 153.931 37.6781 156.28 37.6732Z" fill="white"/>
<path d="M174.884 38.5448V12.2336C174.883 11.9974 174.928 11.7634 175.017 11.5448C175.107 11.3263 175.238 11.1275 175.404 10.9599C175.57 10.7923 175.767 10.6591 175.985 10.568C176.202 10.4769 176.435 10.4296 176.671 10.4289C176.907 10.4286 177.141 10.4752 177.359 10.5659C177.577 10.6566 177.775 10.7896 177.942 10.9574C178.108 11.1251 178.24 11.3242 178.33 11.5432C178.419 11.7623 178.465 11.9969 178.463 12.2336V15.6047C178.841 13.9155 179.825 12.425 181.23 11.4179C182.639 10.4022 184.429 9.89435 186.6 9.89435C189.565 9.89435 191.934 10.8374 193.706 12.7234C195.478 14.6095 196.364 17.1468 196.363 20.3354V38.5541C196.363 38.7896 196.317 39.0229 196.227 39.2405C196.137 39.4581 196.005 39.6558 195.839 39.8224C195.673 39.9889 195.475 40.121 195.258 40.2112C195.041 40.3013 194.809 40.3477 194.574 40.3477C194.099 40.3477 193.644 40.1588 193.308 39.8225C192.972 39.4862 192.783 39.03 192.783 38.5541V20.8792C192.783 18.3773 192.151 16.4292 190.886 15.0348C189.622 13.6404 187.904 12.9395 185.733 12.932C183.491 12.932 181.719 13.6479 180.416 15.0795C179.113 16.5111 178.462 18.4804 178.463 20.9873V38.5523C178.462 39.0273 178.272 39.4821 177.936 39.817C177.599 40.1519 177.145 40.3394 176.671 40.3384C176.197 40.3374 175.742 40.148 175.407 39.8118C175.072 39.4756 174.884 39.02 174.884 38.5448Z" fill="white"/>
<path d="M27.6803 2.09988V15.6233H24.4961V2.09988C24.4888 1.88531 24.5246 1.67147 24.6015 1.47108C24.6784 1.27069 24.7947 1.08787 24.9435 0.933488C25.0923 0.779111 25.2706 0.656341 25.4677 0.572493C25.6649 0.488646 25.8768 0.445435 26.091 0.445435C26.3051 0.445435 26.5171 0.488646 26.7142 0.572493C26.9114 0.656341 27.0896 0.779111 27.2385 0.933488C27.3873 1.08787 27.5036 1.27069 27.5804 1.47108C27.6573 1.67147 27.6931 1.88531 27.6858 2.09988H27.6803Z" fill="white"/>
<path d="M27.6803 25.2169V38.7403C27.6662 39.155 27.4919 39.5479 27.1944 39.8362C26.8968 40.1245 26.4992 40.2856 26.0854 40.2856C25.6716 40.2856 25.274 40.1245 24.9764 39.8362C24.6789 39.5479 24.5047 39.155 24.4905 38.7403V25.2169H27.6803Z" fill="white"/>
<path d="M43.1385 18.8212V22.0191H1.59393C1.37991 22.0264 1.16661 21.9904 0.966731 21.9134C0.766855 21.8363 0.584492 21.7197 0.430507 21.5705C0.276522 21.4213 0.154065 21.2426 0.0704307 21.0449C-0.0132039 20.8473 -0.0563049 20.6348 -0.0563049 20.4201C-0.0563049 20.2054 -0.0132039 19.9929 0.0704307 19.7953C0.154065 19.5976 0.276522 19.4189 0.430507 19.2697C0.584492 19.1205 0.766855 19.0039 0.966731 18.9269C1.16661 18.8498 1.37991 18.8139 1.59393 18.8212H43.1385Z" fill="#3DB7AC"/>
<path d="M52.182 20.4285C52.182 20.8525 52.0141 21.2591 51.7153 21.5591C51.4164 21.8591 51.011 22.0279 50.5881 22.0283H46.3283V18.8212H50.5881C50.7982 18.8212 51.0062 18.8628 51.2002 18.9437C51.3942 19.0246 51.5703 19.1431 51.7184 19.2925C51.8666 19.4419 51.9838 19.6191 52.0633 19.8141C52.1429 20.009 52.1832 20.2178 52.182 20.4285Z" fill="#3DB7AC"/>
<path d="M195.406 47.3021H146.412C145.532 47.3021 144.818 48.0176 144.818 48.9001V48.902C144.818 49.7845 145.532 50.5 146.412 50.5H195.406C196.286 50.5 197 49.7845 197 48.902V48.9001C197 48.0176 196.286 47.3021 195.406 47.3021Z" fill="#3DB7AC"/>
<path d="M46.3282 2.09988V38.7404C46.3141 39.155 46.1399 39.5479 45.8424 39.8362C45.5448 40.1245 45.1472 40.2856 44.7334 40.2856C44.3196 40.2856 43.9219 40.1245 43.6244 39.8362C43.3268 39.5479 43.1526 39.155 43.1385 38.7404V2.09988C43.1312 1.88531 43.167 1.67147 43.2439 1.47108C43.3208 1.27069 43.4371 1.08787 43.5859 0.933488C43.7347 0.779111 43.913 0.656341 44.1101 0.572493C44.3073 0.488646 44.5192 0.445435 44.7334 0.445435C44.9475 0.445435 45.1595 0.488646 45.3566 0.572493C45.5537 0.656341 45.732 0.779111 45.8809 0.933488C46.0297 1.08787 46.146 1.27069 46.2228 1.47108C46.2997 1.67147 46.3355 1.88531 46.3282 2.09988Z" fill="white"/>
</g>
<defs>
<clipPath id="clip0_37_44">
<rect width="197" height="50" fill="white" transform="translate(0 0.5)"/>
</clipPath>
</defs>
</svg>